<?xml version="1.0" encoding="utf-8"?>
<!-- Generator: Adobe Illustrator 25.4.1, SVG Export Plug-In . SVG Version: 6.00 Build 0)  -->
<svg version="1.1" id="RGB" xmlns="http://www.w3.org/2000/svg" xmlns:xlink="http://www.w3.org/1999/xlink" x="0px" y="0px"
	 viewBox="0 0 363 113.4" style="enable-background:new 0 0 363 113.4;" xml:space="preserve">
<style type="text/css">
	.st0{fill:url(#SVGID_1_);}
	.st1{fill:url(#SVGID_00000121253456359215979480000010726968346728854954_);}
	.st2{fill:url(#SVGID_00000072966944272418887770000018014875663766750865_);}
	.st3{fill:url(#SVGID_00000085944501562350113810000010089330097811743370_);}
	.st4{fill:url(#SVGID_00000134211764420005259320000017102990427338457511_);}
	.st5{fill:url(#SVGID_00000069369335293959846310000014428569822628500636_);}
	.st6{fill:url(#SVGID_00000033339790727034564790000011922844358346915204_);}
	.st7{fill:url(#SVGID_00000122704978886818139330000007330688651937096601_);}
	.st8{fill:url(#SVGID_00000029044914814186188670000018386981187917228479_);}
	.st9{fill:url(#SVGID_00000103222701948636122580000018104045860585619359_);}
	.st10{fill:url(#SVGID_00000180329425906327161050000012101834891214164403_);}
	.st11{fill:url(#SVGID_00000008126923495138930870000000974599595998132896_);}
	.st12{fill:url(#SVGID_00000093135872846965310760000011861725185474502833_);}
	.st13{fill:url(#SVGID_00000124865112423653836140000000698685897747071915_);}
	.st14{fill:url(#SVGID_00000101784159094477408860000008562335635472357534_);}
	.st15{fill:url(#SVGID_00000065035936732521098480000001674899304684891836_);}
	.st16{fill:url(#SVGID_00000086685201969649707140000000093835443569394619_);}
</style>
<g>
	<linearGradient id="SVGID_1_" gradientUnits="userSpaceOnUse" x1="75.0941" y1="89.0819" x2="280.6044" y2="-66.5473">
		<stop  offset="0" style="stop-color:#FF308F"/>
		<stop  offset="1" style="stop-color:#F59B3B"/>
	</linearGradient>
	<path class="st0" d="M156.3,32.6h28.5c0.4,0,0.6-0.2,0.6-0.7v-4.4c0-0.4-0.2-0.6-0.6-0.6H161V1.7c0-0.4-0.2-0.7-0.6-0.7h-4.1
		c-0.4,0-0.6,0.2-0.6,0.7V32C155.7,32.4,155.9,32.6,156.3,32.6z"/>
	
		<linearGradient id="SVGID_00000027590098233387728750000002378322788987007394_" gradientUnits="userSpaceOnUse" x1="89.0469" y1="107.5067" x2="294.5573" y2="-48.1225">
		<stop  offset="0" style="stop-color:#FF308F"/>
		<stop  offset="1" style="stop-color:#F59B3B"/>
	</linearGradient>
	<path style="fill:url(#SVGID_00000027590098233387728750000002378322788987007394_);" d="M199.3,33.2h19c2.3,0,4.3-1,6-3.1
		c1.7-2,2.5-4.5,2.5-7.4V10.9c0-2.9-0.8-5.3-2.5-7.4c-1.7-2-3.7-3-6-3h-19c-2.3,0-4.3,1-6,3c-1.7,2-2.5,4.5-2.5,7.4v11.9
		c0,2.9,0.8,5.3,2.5,7.4C194.9,32.2,196.9,33.2,199.3,33.2z M196.1,10.5c0-1.2,0.3-2.2,0.8-3c0.5-0.8,1.3-1.2,2.4-1.2h19
		c1,0,1.8,0.4,2.4,1.2c0.5,0.8,0.8,1.8,0.8,3v12.7c0,1.2-0.3,2.2-0.8,3c-0.5,0.8-1.3,1.2-2.4,1.2h-19c-1,0-1.8-0.4-2.4-1.2
		c-0.5-0.8-0.8-1.8-0.8-3V10.5z"/>
	
		<linearGradient id="SVGID_00000103956301767790871260000006869955444254882953_" gradientUnits="userSpaceOnUse" x1="101.0929" y1="123.4137" x2="306.6033" y2="-32.2155">
		<stop  offset="0" style="stop-color:#FF308F"/>
		<stop  offset="1" style="stop-color:#F59B3B"/>
	</linearGradient>
	<path style="fill:url(#SVGID_00000103956301767790871260000006869955444254882953_);" d="M247.4,31.9c0.2,0.5,0.5,0.7,0.8,0.7h4
		c0.3,0,0.5-0.2,0.8-0.7L269,1.7c0.3-0.5,0.1-0.7-0.3-0.7h-4.8c-0.4,0-0.7,0.2-0.9,0.7l-12.9,24.2L237.3,1.7
		c-0.2-0.5-0.5-0.7-0.9-0.7h-4.8c-0.5,0-0.6,0.2-0.3,0.7L247.4,31.9z"/>
	
		<linearGradient id="SVGID_00000040552237219853054850000010450809189176290996_" gradientUnits="userSpaceOnUse" x1="118.8057" y1="146.8036" x2="324.3161" y2="-8.8256">
		<stop  offset="0" style="stop-color:#FF308F"/>
		<stop  offset="1" style="stop-color:#F59B3B"/>
	</linearGradient>
	<path style="fill:url(#SVGID_00000040552237219853054850000010450809189176290996_);" d="M274.2,32.6h32.5c0.4,0,0.6-0.2,0.6-0.7
		v-4.4c0-0.4-0.2-0.6-0.6-0.6h-27.8v-7.3h25.1c0.4,0,0.6-0.2,0.6-0.7v-4.4c0-0.4-0.2-0.7-0.6-0.7h-25.1V6.7h27.8
		c0.4,0,0.6-0.2,0.6-0.6V1.7c0-0.4-0.2-0.7-0.6-0.7h-32.5c-0.4,0-0.6,0.2-0.6,0.7V32C273.6,32.4,273.8,32.6,274.2,32.6z"/>
	
		<linearGradient id="SVGID_00000163779386731336128740000010129086492059760312_" gradientUnits="userSpaceOnUse" x1="96.242" y1="117.0079" x2="301.7523" y2="-38.6213">
		<stop  offset="0" style="stop-color:#FF308F"/>
		<stop  offset="1" style="stop-color:#F59B3B"/>
	</linearGradient>
	<path style="fill:url(#SVGID_00000163779386731336128740000010129086492059760312_);" d="M194.4,41.4h-4c-0.3,0-0.6,0.2-0.8,0.7
		l-14.4,23.5L160.8,42c-0.2-0.4-0.5-0.7-0.8-0.7h-4c-0.4,0-0.6,0.2-0.6,0.7v30.3c0,0.4,0.2,0.7,0.6,0.7h4.1c0.4,0,0.6-0.2,0.6-0.7
		v-20l12.2,20c0.3,0.4,0.5,0.7,0.8,0.7h3c0.3,0,0.5-0.2,0.8-0.7l12.2-20v20c0,0.4,0.2,0.7,0.6,0.7h4.1c0.4,0,0.6-0.2,0.6-0.7V42
		C195,41.6,194.8,41.4,194.4,41.4z"/>
	
		<linearGradient id="SVGID_00000104705177673958281720000010649845538249836959_" gradientUnits="userSpaceOnUse" x1="111.8646" y1="137.6378" x2="317.375" y2="-17.9914">
		<stop  offset="0" style="stop-color:#FF308F"/>
		<stop  offset="1" style="stop-color:#F59B3B"/>
	</linearGradient>
	<path style="fill:url(#SVGID_00000104705177673958281720000010649845538249836959_);" d="M202.6,43.9c-1.7,2-2.5,4.5-2.5,7.4v11.9
		c0,2.9,0.8,5.3,2.5,7.4c1.7,2,3.7,3.1,6,3h19c2.3,0,4.3-1,6-3.1c1.7-2,2.5-4.5,2.5-7.4V51.3c0-2.9-0.8-5.3-2.5-7.4
		c-1.7-2-3.7-3-6-3h-19C206.2,40.9,204.2,41.9,202.6,43.9z M229.9,47.9c0.5,0.8,0.8,1.8,0.8,3v12.7c0,1.2-0.3,2.2-0.8,3
		c-0.5,0.8-1.3,1.2-2.4,1.2h-19c-1,0-1.8-0.4-2.4-1.2c-0.5-0.8-0.8-1.8-0.8-3V50.9c0-1.2,0.3-2.2,0.8-3c0.5-0.8,1.3-1.2,2.4-1.2h19
		C228.5,46.6,229.3,47,229.9,47.9z"/>
	
		<linearGradient id="SVGID_00000003090897931995862650000014144110188005094039_" gradientUnits="userSpaceOnUse" x1="125.882" y1="156.1479" x2="331.3923" y2="0.5187">
		<stop  offset="0" style="stop-color:#FF308F"/>
		<stop  offset="1" style="stop-color:#F59B3B"/>
	</linearGradient>
	<path style="fill:url(#SVGID_00000003090897931995862650000014144110188005094039_);" d="M241.8,41.4c-0.5,0-0.7,0.3-0.7,0.8v30.1
		c0,0.5,0.2,0.8,0.7,0.8h26.3c5.3,0,8-2.7,8-8.2c0-4.1-1.2-6.8-3.5-8c1.9-1.3,2.8-3.7,2.8-7.4c0-2.5-0.7-4.5-2.1-5.9
		c-1.4-1.4-3.2-2.1-5.5-2.1H241.8z M270,66.5c-0.6,0.5-1.5,0.8-2.8,0.8h-20.7v-7.6h20.7c2.5,0,3.7,1.4,3.7,4
		C270.8,65.1,270.5,66,270,66.5z M270.1,50.4c0,1.3-0.2,2.2-0.6,2.7c-0.4,0.5-1.2,0.8-2.4,0.8h-20.7v-6.9h20.8
		C269.2,47.1,270.1,48.2,270.1,50.4z"/>
	
		<linearGradient id="SVGID_00000142858468110990309300000016034539013090184620_" gradientUnits="userSpaceOnUse" x1="136.1692" y1="169.7324" x2="341.6796" y2="14.1032">
		<stop  offset="0" style="stop-color:#FF308F"/>
		<stop  offset="1" style="stop-color:#F59B3B"/>
	</linearGradient>
	<path style="fill:url(#SVGID_00000142858468110990309300000016034539013090184620_);" d="M282.7,41.4c-0.4,0-0.6,0.2-0.6,0.7v30.3
		c0,0.4,0.2,0.7,0.6,0.7h4.1c0.4,0,0.6-0.2,0.6-0.7V42c0-0.4-0.2-0.7-0.6-0.7H282.7z"/>
	
		<linearGradient id="SVGID_00000143587117693065808020000002662850685557625760_" gradientUnits="userSpaceOnUse" x1="144.9667" y1="181.3495" x2="350.4771" y2="25.7203">
		<stop  offset="0" style="stop-color:#FF308F"/>
		<stop  offset="1" style="stop-color:#F59B3B"/>
	</linearGradient>
	<path style="fill:url(#SVGID_00000143587117693065808020000002662850685557625760_);" d="M323.2,67.3h-23.7V42
		c0-0.4-0.2-0.7-0.6-0.7h-4.1c-0.4,0-0.6,0.2-0.6,0.7v30.3c0,0.4,0.2,0.7,0.6,0.7h28.5c0.4,0,0.6-0.2,0.6-0.7v-4.4
		C323.8,67.5,323.6,67.3,323.2,67.3z"/>
	
		<linearGradient id="SVGID_00000047034924141811349170000003770200991939931576_" gradientUnits="userSpaceOnUse" x1="158.5443" y1="199.279" x2="364.0547" y2="43.6498">
		<stop  offset="0" style="stop-color:#FF308F"/>
		<stop  offset="1" style="stop-color:#F59B3B"/>
	</linearGradient>
	<path style="fill:url(#SVGID_00000047034924141811349170000003770200991939931576_);" d="M362.4,47.1c0.4,0,0.6-0.2,0.6-0.6V42
		c0-0.4-0.2-0.7-0.6-0.7h-32.5c-0.4,0-0.6,0.2-0.6,0.7v30.3c0,0.4,0.2,0.7,0.6,0.7h32.5c0.4,0,0.6-0.2,0.6-0.7v-4.4
		c0-0.4-0.2-0.6-0.6-0.6h-27.8V60h25.1c0.4,0,0.6-0.2,0.6-0.7v-4.4c0-0.4-0.2-0.7-0.6-0.7h-25.1v-7.1H362.4z"/>
	
		<linearGradient id="SVGID_00000082367247695659476490000004687532585559217328_" gradientUnits="userSpaceOnUse" x1="113.8114" y1="140.2086" x2="319.3217" y2="-15.4206">
		<stop  offset="0" style="stop-color:#FF308F"/>
		<stop  offset="1" style="stop-color:#F59B3B"/>
	</linearGradient>
	<path style="fill:url(#SVGID_00000082367247695659476490000004687532585559217328_);" d="M182.1,81.7h-25.9c-0.4,0-0.6,0.2-0.6,0.7
		v30.3c0,0.4,0.2,0.7,0.6,0.7h25.9c2.2,0,4.2-1,5.9-3s2.6-4.4,2.6-7.2V92c0-2.8-0.9-5.1-2.6-7.2C186.2,82.7,184.3,81.7,182.1,81.7z
		 M185.1,103.2c0,1.8-0.3,3-0.9,3.6c-0.6,0.6-1.5,0.9-2.7,0.9h-20.7V87.5h20.7c1.2,0,2.1,0.3,2.7,0.9c0.6,0.6,0.9,1.8,0.9,3.6V103.2
		z"/>
	
		<linearGradient id="SVGID_00000124863432235240491550000017374647965096711317_" gradientUnits="userSpaceOnUse" x1="133.1208" y1="165.7069" x2="338.6312" y2="10.0777">
		<stop  offset="0" style="stop-color:#FF308F"/>
		<stop  offset="1" style="stop-color:#F59B3B"/>
	</linearGradient>
	<path style="fill:url(#SVGID_00000124863432235240491550000017374647965096711317_);" d="M217.1,82.3c-0.3-0.5-0.5-0.7-0.8-0.7H213
		c-0.3,0-0.5,0.2-0.8,0.7l-16.7,30.4c-0.2,0.5-0.1,0.7,0.5,0.7h4.4c0.1,0,0.2,0,0.3-0.1c0.1,0,0.3-0.3,0.4-0.6l3.7-6.7h19.6l3.7,6.7
		c0.3,0.5,0.5,0.7,0.8,0.7h4.3c0.2,0,0.4-0.1,0.5-0.2c0.1-0.1,0.1-0.3,0-0.5L217.1,82.3z M208,100.2l6.6-12l6.7,12H208z"/>
	
		<linearGradient id="SVGID_00000082328481668992624620000009271061566007832491_" gradientUnits="userSpaceOnUse" x1="140.1394" y1="174.975" x2="345.6497" y2="19.3458">
		<stop  offset="0" style="stop-color:#FF308F"/>
		<stop  offset="1" style="stop-color:#F59B3B"/>
	</linearGradient>
	<path style="fill:url(#SVGID_00000082328481668992624620000009271061566007832491_);" d="M267.5,86.9v-4.4c0-0.4-0.2-0.7-0.6-0.7
		h-34.1c-0.4,0-0.6,0.2-0.6,0.7v4.4c0,0.4,0.2,0.6,0.6,0.6h14.4v25.2c0,0.4,0.2,0.7,0.6,0.7h4.1c0.4,0,0.6-0.2,0.6-0.7V87.5h14.3
		C267.3,87.5,267.5,87.3,267.5,86.9z"/>
	
		<linearGradient id="SVGID_00000088854062930865208880000013010994949902205346_" gradientUnits="userSpaceOnUse" x1="158.6641" y1="199.4372" x2="364.1745" y2="43.808">
		<stop  offset="0" style="stop-color:#FF308F"/>
		<stop  offset="1" style="stop-color:#F59B3B"/>
	</linearGradient>
	<path style="fill:url(#SVGID_00000088854062930865208880000013010994949902205346_);" d="M287.2,82.3c-0.3-0.5-0.5-0.7-0.8-0.7
		h-3.3c-0.3,0-0.5,0.2-0.8,0.7l-16.7,30.4c-0.2,0.5-0.1,0.7,0.5,0.7h4.4c0.1,0,0.2,0,0.3-0.1c0.1,0,0.3-0.3,0.4-0.6l3.7-6.7h19.6
		l3.7,6.7c0.3,0.5,0.5,0.7,0.8,0.7h4.3c0.2,0,0.4-0.1,0.5-0.2c0.1-0.1,0.1-0.3,0-0.5L287.2,82.3z M278.1,100.2l6.6-12l6.7,12H278.1z
		"/>
	
		<linearGradient id="SVGID_00000139254870521898158910000012300910646558459786_" gradientUnits="userSpaceOnUse" x1="52.7319" y1="59.5523" x2="258.2422" y2="-96.0769">
		<stop  offset="0" style="stop-color:#FF308F"/>
		<stop  offset="1" style="stop-color:#F59B3B"/>
	</linearGradient>
	<path style="fill:url(#SVGID_00000139254870521898158910000012300910646558459786_);" d="M101,0L3.8,0C2,0,0.4,1.2,0.1,2.9
		c-0.5,2.4,1.3,4.5,3.6,4.5h97.5c7.2,0,13.7,3.3,19.1,9.9c5.4,6.4,8.1,14.1,8.1,22.8v32.7c0,8.7-2.7,16.4-8.1,22.8
		c-5.5,6.6-12,9.9-19.3,9.9H12c-2.7,0-4.5-1.9-4.5-4.7l0-6.9c0-2.1-1.7-3.7-3.7-3.7h0c-2.1,0-3.7,1.7-3.7,3.7l0,6.9
		c0,6.9,5.1,12.1,12,12.1h89c9.6,0,18-4.2,25-12.5c6.5-7.8,9.9-17.1,9.9-27.6V40.1c0-10.5-3.3-19.7-9.8-27.5
		C119.1,4.2,110.7,0,101,0z"/>
	<g>
		
			<linearGradient id="SVGID_00000083783796418694784890000001388483138803064492_" gradientUnits="userSpaceOnUse" x1="43.3143" y1="47.1163" x2="248.8247" y2="-108.5129">
			<stop  offset="0" style="stop-color:#FF308F"/>
			<stop  offset="1" style="stop-color:#F59B3B"/>
		</linearGradient>
		<path style="fill:url(#SVGID_00000083783796418694784890000001388483138803064492_);" d="M51.2,62.9l14.4-14.4l2.1-2.1
			c4-4,4-10.4,0-14.4c-4-4-10.4-4-14.4,0l-2.1,2.1L49.1,32c-4-4-10.4-4-14.4,0h0c-4,4-4,10.4,0,14.4l2.1,2.1L51.2,62.9z"/>
		
			<linearGradient id="SVGID_00000158028596208967789460000014916883868572750266_" gradientUnits="userSpaceOnUse" x1="50.909" y1="57.1451" x2="256.4193" y2="-98.4841">
			<stop  offset="0" style="stop-color:#FF308F"/>
			<stop  offset="1" style="stop-color:#F59B3B"/>
		</linearGradient>
		<path style="fill:url(#SVGID_00000158028596208967789460000014916883868572750266_);" d="M7.5,42.6l41.1,40.1
			c1.4,1.4,3.8,1.4,5.2,0l41.1-40.1l0,37.4c0,1.8,1.2,3.4,2.9,3.7c2.4,0.5,4.5-1.3,4.5-3.6l0-46.1c0-1.2-0.5-2.3-1.4-3
			c-1.5-1.2-3.6-1-4.9,0.2L51.2,74.9L6.4,31.1c-1.3-1.3-3.4-1.4-4.9-0.2c-0.9,0.7-1.4,1.9-1.4,3l0,46.2c0,2.1,1.7,3.7,3.7,3.7h0
			c2.1,0,3.7-1.7,3.7-3.7L7.5,42.6z"/>
	</g>
</g>
</svg>
